<svg width="26" height="32" viewBox="0 0 26 32" fill="none" xmlns="http://www.w3.org/2000/svg">
<path d="M22.5002 6.49935H19.3335C19.3335 3.00018 16.4993 0.166016 13.0002 0.166016C9.501 0.166016 6.66683 3.00018 6.66683 6.49935H3.50016C1.7585 6.49935 0.333496 7.92435 0.333496 9.66602V28.666C0.333496 30.4077 1.7585 31.8327 3.50016 31.8327H22.5002C24.2418 31.8327 25.6668 30.4077 25.6668 28.666V9.66602C25.6668 7.92435 24.2418 6.49935 22.5002 6.49935ZM13.0002 3.33268C14.7418 3.33268 16.1668 4.75768 16.1668 6.49935H9.8335C9.8335 4.75768 11.2585 3.33268 13.0002 3.33268ZM22.5002 28.666H3.50016V9.66602H6.66683V12.8327C6.66683 13.7035 7.37933 14.416 8.25016 14.416C9.121 14.416 9.8335 13.7035 9.8335 12.8327V9.66602H16.1668V12.8327C16.1668 13.7035 16.8793 14.416 17.7502 14.416C18.621 14.416 19.3335 13.7035 19.3335 12.8327V9.66602H22.5002V28.666Z" fill="#002F52"/>
</svg>

<svg width="35" height="32" viewBox="0 0 35 32" fill="none" xmlns="http://www.w3.org/2000/svg">
<path d="M25.4087 0C22.3743 0 19.4621 1.41253 17.5613 3.64469C15.6604 1.41253 12.7482 0 9.71384 0C4.34272 0 0.122559 4.22016 0.122559 9.59128C0.122559 16.1831 6.05171 21.5542 15.0326 29.7155L17.5613 32L20.0899 29.6981C29.0708 21.5542 34.9999 16.1831 34.9999 9.59128C34.9999 4.22016 30.7798 0 25.4087 0ZM17.7356 27.1172L17.5613 27.2916L17.3869 27.1172C9.08605 19.6011 3.6103 14.6311 3.6103 9.59128C3.6103 6.10354 6.2261 3.48774 9.71384 3.48774C12.3994 3.48774 15.0152 5.21417 15.9395 7.60327H19.2005C20.1073 5.21417 22.7231 3.48774 25.4087 3.48774C28.8964 3.48774 31.5122 6.10354 31.5122 9.59128C31.5122 14.6311 26.0365 19.6011 17.7356 27.1172Z" fill="url(#paint0_linear_611_513)"/>
<defs>
<linearGradient id="paint0_linear_611_513" x1="14.6952" y1="-3.84001" x2="64.9448" y2="3.41189" gradientUnits="userSpaceOnUse">
<stop stop-color="#002F52"/>
<stop offset="1" stop-color="#326589"/>
</linearGradient>
</defs>
</svg>

<svg width="40" height="40" viewBox="0 0 40 40" fill="none" xmlns="http://www.w3.org/2000/svg">
<path d="M19.9997 1.71875L36.1482 35.8849H3.85107L19.9997 1.71875Z" fill="#FECD2F"/>
<path fill-rule="evenodd" clip-rule="evenodd" d="M10.4602 31.7672H29.5398L20 11.5835L10.4602 31.7672ZM0 34.1661L16.1486 0H23.8514L40 34.1661L36.1486 40H3.85141L0 34.1661Z" fill="url(#paint0_linear_611_508)"/>
<defs>
<linearGradient id="paint0_linear_611_508" x1="20" y1="0" x2="20" y2="40" gradientUnits="userSpaceOnUse">
<stop offset="0.677083" stop-color="#FD8325"/>
<stop offset="1" stop-color="#FC6621"/>
</linearGradient>
</defs>
</svg>

<svg width="18" height="18" viewBox="0 0 18 18" fill="none" xmlns="http://www.w3.org/2000/svg">
<path d="M12.5 11H11.71L11.43 10.73C12.41 9.59 13 8.11 13 6.5C13 2.91 10.09 0 6.5 0C2.91 0 0 2.91 0 6.5C0 10.09 2.91 13 6.5 13C8.11 13 9.59 12.41 10.73 11.43L11 11.71V12.5L16 17.49L17.49 16L12.5 11V11ZM6.5 11C4.01 11 2 8.99 2 6.5C2 4.01 4.01 2 6.5 2C8.99 2 11 4.01 11 6.5C11 8.99 8.99 11 6.5 11Z" fill="white"/>
</svg>

<svg width="36" height="24" viewBox="0 0 36 24" fill="none" xmlns="http://www.w3.org/2000/svg">
<path d="M0 24H36V20H0V24ZM0 14H36V10H0V14ZM0 0V4H36V0H0Z" fill="#002F52"/>
</svg>

<svg width="32" height="32" viewBox="0 0 32 32" fill="none" xmlns="http://www.w3.org/2000/svg">
<path d="M16 0C7.168 0 0 7.168 0 16C0 24.832 7.168 32 16 32C24.832 32 32 24.832 32 16C32 7.168 24.832 0 16 0ZM8.112 26.048C8.8 24.608 12.992 23.2 16 23.2C19.008 23.2 23.216 24.608 23.888 26.048C21.712 27.776 18.976 28.8 16 28.8C13.024 28.8 10.288 27.776 8.112 26.048ZM26.176 23.728C23.888 20.944 18.336 20 16 20C13.664 20 8.112 20.944 5.824 23.728C4.192 21.584 3.2 18.912 3.2 16C3.2 8.944 8.944 3.2 16 3.2C23.056 3.2 28.8 8.944 28.8 16C28.8 18.912 27.808 21.584 26.176 23.728V23.728ZM16 6.4C12.896 6.4 10.4 8.896 10.4 12C10.4 15.104 12.896 17.6 16 17.6C19.104 17.6 21.6 15.104 21.6 12C21.6 8.896 19.104 6.4 16 6.4ZM16 14.4C14.672 14.4 13.6 13.328 13.6 12C13.6 10.672 14.672 9.6 16 9.6C17.328 9.6 18.4 10.672 18.4 12C18.4 13.328 17.328 14.4 16 14.4Z" fill="#002F52"/>
</svg>
